<mxfile host="app.diagrams.net" modified="2024-05-30T16:10:50.452Z" agent="Mozilla/5.0 (Windows NT 10.0; Win64; x64) AppleWebKit/537.36 (KHTML, like Gecko) Chrome/125.0.0.0 Safari/537.36" etag="epLFMbgCjxOK8F6xvFXY" version="24.4.10" type="device" pages="3">
  <diagram name="atividade_login" id="ztZc5MXVelh08R24VMgA">
    <mxGraphModel dx="1909" dy="978" grid="1" gridSize="10" guides="1" tooltips="1" connect="1" arrows="1" fold="1" page="1" pageScale="1" pageWidth="1169" pageHeight="827" math="0" shadow="0">
      <root>
        <mxCell id="0" />
        <mxCell id="1" parent="0" />
        <mxCell id="UvolW_9LxdMhIzpEhHVE-5" value="" style="edgeStyle=orthogonalEdgeStyle;rounded=0;orthogonalLoop=1;jettySize=auto;html=1;exitX=1;exitY=0.5;exitDx=0;exitDy=0;" edge="1" parent="1" source="EyT2N7NVuJCTYrgCHgiy-1" target="EyT2N7NVuJCTYrgCHgiy-4">
          <mxGeometry relative="1" as="geometry">
            <mxPoint x="310" y="230" as="targetPoint" />
          </mxGeometry>
        </mxCell>
        <mxCell id="EyT2N7NVuJCTYrgCHgiy-1" value="Informar E-mail" style="rounded=1;whiteSpace=wrap;html=1;" parent="1" vertex="1">
          <mxGeometry x="160" y="105" width="120" height="60" as="geometry" />
        </mxCell>
        <mxCell id="EyT2N7NVuJCTYrgCHgiy-7" value="" style="edgeStyle=orthogonalEdgeStyle;rounded=0;orthogonalLoop=1;jettySize=auto;html=1;entryX=0;entryY=0.5;entryDx=0;entryDy=0;" parent="1" source="EyT2N7NVuJCTYrgCHgiy-4" target="UvolW_9LxdMhIzpEhHVE-6" edge="1">
          <mxGeometry relative="1" as="geometry" />
        </mxCell>
        <mxCell id="EyT2N7NVuJCTYrgCHgiy-4" value="Formato E-mail é válido?" style="rounded=1;whiteSpace=wrap;html=1;" parent="1" vertex="1">
          <mxGeometry x="320" y="105" width="120" height="60" as="geometry" />
        </mxCell>
        <mxCell id="EyT2N7NVuJCTYrgCHgiy-13" style="edgeStyle=orthogonalEdgeStyle;rounded=0;orthogonalLoop=1;jettySize=auto;html=1;exitX=0.5;exitY=1;exitDx=0;exitDy=0;" parent="1" source="UvolW_9LxdMhIzpEhHVE-6" target="UvolW_9LxdMhIzpEhHVE-42" edge="1">
          <mxGeometry relative="1" as="geometry">
            <mxPoint x="700" y="260" as="targetPoint" />
            <mxPoint x="850" y="247.5" as="sourcePoint" />
            <Array as="points">
              <mxPoint x="595" y="230" />
              <mxPoint x="595" y="230" />
            </Array>
          </mxGeometry>
        </mxCell>
        <mxCell id="UvolW_9LxdMhIzpEhHVE-14" value="Sim" style="edgeLabel;html=1;align=center;verticalAlign=middle;resizable=0;points=[];" vertex="1" connectable="0" parent="EyT2N7NVuJCTYrgCHgiy-13">
          <mxGeometry x="-0.7042" y="-5" relative="1" as="geometry">
            <mxPoint x="5" y="11" as="offset" />
          </mxGeometry>
        </mxCell>
        <mxCell id="UvolW_9LxdMhIzpEhHVE-17" style="edgeStyle=orthogonalEdgeStyle;rounded=0;orthogonalLoop=1;jettySize=auto;html=1;" edge="1" parent="1" source="EyT2N7NVuJCTYrgCHgiy-8" target="UvolW_9LxdMhIzpEhHVE-16">
          <mxGeometry relative="1" as="geometry">
            <mxPoint x="320" y="544" as="targetPoint" />
            <Array as="points" />
          </mxGeometry>
        </mxCell>
        <mxCell id="EyT2N7NVuJCTYrgCHgiy-8" value="Informar senha" style="rounded=1;whiteSpace=wrap;html=1;" parent="1" vertex="1">
          <mxGeometry x="480" y="460" width="120" height="60" as="geometry" />
        </mxCell>
        <mxCell id="RbLpGZF_09v60QNqSbMu-1" value="" style="ellipse;html=1;shape=endState;fillColor=strokeColor;" parent="1" vertex="1">
          <mxGeometry x="525" y="920" width="30" height="30" as="geometry" />
        </mxCell>
        <mxCell id="UvolW_9LxdMhIzpEhHVE-1" value="ativiadade_Fazer_Login" style="shape=umlFrame;whiteSpace=wrap;html=1;pointerEvents=0;width=170;height=40;" vertex="1" parent="1">
          <mxGeometry x="30" y="10" width="1370" height="970" as="geometry" />
        </mxCell>
        <mxCell id="UvolW_9LxdMhIzpEhHVE-4" value="" style="edgeStyle=orthogonalEdgeStyle;rounded=0;orthogonalLoop=1;jettySize=auto;html=1;" edge="1" parent="1" source="UvolW_9LxdMhIzpEhHVE-3" target="EyT2N7NVuJCTYrgCHgiy-1">
          <mxGeometry relative="1" as="geometry" />
        </mxCell>
        <mxCell id="UvolW_9LxdMhIzpEhHVE-3" value="" style="ellipse;fillColor=strokeColor;html=1;" vertex="1" parent="1">
          <mxGeometry x="70" y="120" width="30" height="30" as="geometry" />
        </mxCell>
        <mxCell id="UvolW_9LxdMhIzpEhHVE-10" value="" style="edgeStyle=orthogonalEdgeStyle;rounded=0;orthogonalLoop=1;jettySize=auto;html=1;entryX=0;entryY=0.5;entryDx=0;entryDy=0;" edge="1" parent="1" source="UvolW_9LxdMhIzpEhHVE-6" target="UvolW_9LxdMhIzpEhHVE-11">
          <mxGeometry relative="1" as="geometry">
            <mxPoint x="715" y="125" as="targetPoint" />
          </mxGeometry>
        </mxCell>
        <mxCell id="UvolW_9LxdMhIzpEhHVE-13" value="Não" style="edgeLabel;html=1;align=center;verticalAlign=middle;resizable=0;points=[];" vertex="1" connectable="0" parent="UvolW_9LxdMhIzpEhHVE-10">
          <mxGeometry x="-0.1402" y="-2" relative="1" as="geometry">
            <mxPoint as="offset" />
          </mxGeometry>
        </mxCell>
        <mxCell id="UvolW_9LxdMhIzpEhHVE-6" value="" style="rhombus;" vertex="1" parent="1">
          <mxGeometry x="495" y="90" width="90" height="90" as="geometry" />
        </mxCell>
        <mxCell id="UvolW_9LxdMhIzpEhHVE-12" style="edgeStyle=orthogonalEdgeStyle;rounded=0;orthogonalLoop=1;jettySize=auto;html=1;entryX=0.5;entryY=0;entryDx=0;entryDy=0;" edge="1" parent="1" source="UvolW_9LxdMhIzpEhHVE-11" target="EyT2N7NVuJCTYrgCHgiy-1">
          <mxGeometry relative="1" as="geometry">
            <Array as="points">
              <mxPoint x="820" y="30" />
              <mxPoint x="220" y="30" />
            </Array>
          </mxGeometry>
        </mxCell>
        <mxCell id="UvolW_9LxdMhIzpEhHVE-11" value="Exibe &quot;Email inválido&quot;" style="rounded=1;whiteSpace=wrap;html=1;" vertex="1" parent="1">
          <mxGeometry x="670" y="105" width="120" height="60" as="geometry" />
        </mxCell>
        <mxCell id="UvolW_9LxdMhIzpEhHVE-20" style="edgeStyle=orthogonalEdgeStyle;rounded=0;orthogonalLoop=1;jettySize=auto;html=1;entryX=0;entryY=0.5;entryDx=0;entryDy=0;" edge="1" parent="1" source="UvolW_9LxdMhIzpEhHVE-15" target="UvolW_9LxdMhIzpEhHVE-23">
          <mxGeometry relative="1" as="geometry">
            <mxPoint x="475" y="695" as="targetPoint" />
          </mxGeometry>
        </mxCell>
        <mxCell id="UvolW_9LxdMhIzpEhHVE-21" value="Não" style="edgeLabel;html=1;align=center;verticalAlign=middle;resizable=0;points=[];" vertex="1" connectable="0" parent="UvolW_9LxdMhIzpEhHVE-20">
          <mxGeometry x="-0.3704" y="1" relative="1" as="geometry">
            <mxPoint as="offset" />
          </mxGeometry>
        </mxCell>
        <mxCell id="UvolW_9LxdMhIzpEhHVE-39" style="edgeStyle=orthogonalEdgeStyle;rounded=0;orthogonalLoop=1;jettySize=auto;html=1;entryX=0.5;entryY=0;entryDx=0;entryDy=0;" edge="1" parent="1" source="UvolW_9LxdMhIzpEhHVE-15" target="UvolW_9LxdMhIzpEhHVE-37">
          <mxGeometry relative="1" as="geometry" />
        </mxCell>
        <mxCell id="UvolW_9LxdMhIzpEhHVE-40" value="Sim" style="edgeLabel;html=1;align=center;verticalAlign=middle;resizable=0;points=[];" vertex="1" connectable="0" parent="UvolW_9LxdMhIzpEhHVE-39">
          <mxGeometry x="-0.0417" relative="1" as="geometry">
            <mxPoint as="offset" />
          </mxGeometry>
        </mxCell>
        <mxCell id="UvolW_9LxdMhIzpEhHVE-15" value="" style="rhombus;" vertex="1" parent="1">
          <mxGeometry x="495" y="640" width="90" height="90" as="geometry" />
        </mxCell>
        <mxCell id="UvolW_9LxdMhIzpEhHVE-18" style="edgeStyle=orthogonalEdgeStyle;rounded=0;orthogonalLoop=1;jettySize=auto;html=1;" edge="1" parent="1" source="UvolW_9LxdMhIzpEhHVE-16" target="UvolW_9LxdMhIzpEhHVE-15">
          <mxGeometry relative="1" as="geometry" />
        </mxCell>
        <mxCell id="UvolW_9LxdMhIzpEhHVE-16" value="Senha digitada corretamente" style="rounded=1;whiteSpace=wrap;html=1;" vertex="1" parent="1">
          <mxGeometry x="480" y="550" width="120" height="60" as="geometry" />
        </mxCell>
        <mxCell id="UvolW_9LxdMhIzpEhHVE-22" style="edgeStyle=orthogonalEdgeStyle;rounded=0;orthogonalLoop=1;jettySize=auto;html=1;entryX=1;entryY=0.5;entryDx=0;entryDy=0;exitX=0.5;exitY=0;exitDx=0;exitDy=0;" edge="1" parent="1" source="UvolW_9LxdMhIzpEhHVE-19" target="EyT2N7NVuJCTYrgCHgiy-8">
          <mxGeometry relative="1" as="geometry">
            <Array as="points">
              <mxPoint x="1045" y="490" />
            </Array>
          </mxGeometry>
        </mxCell>
        <mxCell id="UvolW_9LxdMhIzpEhHVE-19" value="Exibe &quot;Digite a senha novamente&quot;" style="rounded=1;whiteSpace=wrap;html=1;" vertex="1" parent="1">
          <mxGeometry x="985" y="510" width="120" height="60" as="geometry" />
        </mxCell>
        <mxCell id="UvolW_9LxdMhIzpEhHVE-25" style="edgeStyle=orthogonalEdgeStyle;rounded=0;orthogonalLoop=1;jettySize=auto;html=1;entryX=0;entryY=0.5;entryDx=0;entryDy=0;" edge="1" parent="1" source="UvolW_9LxdMhIzpEhHVE-23" target="UvolW_9LxdMhIzpEhHVE-26">
          <mxGeometry relative="1" as="geometry" />
        </mxCell>
        <mxCell id="UvolW_9LxdMhIzpEhHVE-23" value="Contabiliza tentativas do usuário" style="rounded=1;whiteSpace=wrap;html=1;" vertex="1" parent="1">
          <mxGeometry x="670" y="655" width="120" height="60" as="geometry" />
        </mxCell>
        <mxCell id="UvolW_9LxdMhIzpEhHVE-28" style="edgeStyle=orthogonalEdgeStyle;rounded=0;orthogonalLoop=1;jettySize=auto;html=1;entryX=0.5;entryY=1;entryDx=0;entryDy=0;" edge="1" parent="1" source="UvolW_9LxdMhIzpEhHVE-24" target="UvolW_9LxdMhIzpEhHVE-19">
          <mxGeometry relative="1" as="geometry" />
        </mxCell>
        <mxCell id="UvolW_9LxdMhIzpEhHVE-29" value="Não" style="edgeLabel;html=1;align=center;verticalAlign=middle;resizable=0;points=[];" vertex="1" connectable="0" parent="UvolW_9LxdMhIzpEhHVE-28">
          <mxGeometry x="0.0885" relative="1" as="geometry">
            <mxPoint as="offset" />
          </mxGeometry>
        </mxCell>
        <mxCell id="UvolW_9LxdMhIzpEhHVE-35" style="edgeStyle=orthogonalEdgeStyle;rounded=0;orthogonalLoop=1;jettySize=auto;html=1;entryX=0;entryY=0.5;entryDx=0;entryDy=0;" edge="1" parent="1" source="UvolW_9LxdMhIzpEhHVE-24" target="UvolW_9LxdMhIzpEhHVE-32">
          <mxGeometry relative="1" as="geometry" />
        </mxCell>
        <mxCell id="UvolW_9LxdMhIzpEhHVE-36" value="Sim" style="edgeLabel;html=1;align=center;verticalAlign=middle;resizable=0;points=[];" vertex="1" connectable="0" parent="UvolW_9LxdMhIzpEhHVE-35">
          <mxGeometry x="-0.0944" y="-1" relative="1" as="geometry">
            <mxPoint as="offset" />
          </mxGeometry>
        </mxCell>
        <mxCell id="UvolW_9LxdMhIzpEhHVE-24" value="" style="rhombus;" vertex="1" parent="1">
          <mxGeometry x="1000" y="640" width="90" height="90" as="geometry" />
        </mxCell>
        <mxCell id="UvolW_9LxdMhIzpEhHVE-27" style="edgeStyle=orthogonalEdgeStyle;rounded=0;orthogonalLoop=1;jettySize=auto;html=1;" edge="1" parent="1" source="UvolW_9LxdMhIzpEhHVE-26" target="UvolW_9LxdMhIzpEhHVE-24">
          <mxGeometry relative="1" as="geometry" />
        </mxCell>
        <mxCell id="UvolW_9LxdMhIzpEhHVE-26" value="Mais de 3 tentativas" style="rounded=1;whiteSpace=wrap;html=1;" vertex="1" parent="1">
          <mxGeometry x="840" y="655" width="120" height="60" as="geometry" />
        </mxCell>
        <mxCell id="UvolW_9LxdMhIzpEhHVE-30" value="" style="ellipse;html=1;shape=endState;fillColor=strokeColor;" vertex="1" parent="1">
          <mxGeometry x="1330" y="670" width="30" height="30" as="geometry" />
        </mxCell>
        <mxCell id="UvolW_9LxdMhIzpEhHVE-34" style="edgeStyle=orthogonalEdgeStyle;rounded=0;orthogonalLoop=1;jettySize=auto;html=1;entryX=0;entryY=0.5;entryDx=0;entryDy=0;" edge="1" parent="1" source="UvolW_9LxdMhIzpEhHVE-32" target="UvolW_9LxdMhIzpEhHVE-30">
          <mxGeometry relative="1" as="geometry" />
        </mxCell>
        <mxCell id="UvolW_9LxdMhIzpEhHVE-32" value="Acesso bloqueado por 24 horas" style="rounded=1;whiteSpace=wrap;html=1;" vertex="1" parent="1">
          <mxGeometry x="1169" y="655" width="120" height="60" as="geometry" />
        </mxCell>
        <mxCell id="UvolW_9LxdMhIzpEhHVE-38" style="edgeStyle=orthogonalEdgeStyle;rounded=0;orthogonalLoop=1;jettySize=auto;html=1;entryX=0.5;entryY=0;entryDx=0;entryDy=0;" edge="1" parent="1" source="UvolW_9LxdMhIzpEhHVE-37" target="RbLpGZF_09v60QNqSbMu-1">
          <mxGeometry relative="1" as="geometry" />
        </mxCell>
        <mxCell id="UvolW_9LxdMhIzpEhHVE-37" value="Login realizado com sucesso" style="rounded=1;whiteSpace=wrap;html=1;" vertex="1" parent="1">
          <mxGeometry x="480" y="800" width="120" height="60" as="geometry" />
        </mxCell>
        <mxCell id="UvolW_9LxdMhIzpEhHVE-45" style="edgeStyle=orthogonalEdgeStyle;rounded=0;orthogonalLoop=1;jettySize=auto;html=1;entryX=0.5;entryY=0;entryDx=0;entryDy=0;" edge="1" parent="1" source="UvolW_9LxdMhIzpEhHVE-41" target="EyT2N7NVuJCTYrgCHgiy-8">
          <mxGeometry relative="1" as="geometry" />
        </mxCell>
        <mxCell id="UvolW_9LxdMhIzpEhHVE-46" value="Sim" style="edgeLabel;html=1;align=center;verticalAlign=middle;resizable=0;points=[];" vertex="1" connectable="0" parent="UvolW_9LxdMhIzpEhHVE-45">
          <mxGeometry x="-0.1019" relative="1" as="geometry">
            <mxPoint as="offset" />
          </mxGeometry>
        </mxCell>
        <mxCell id="UvolW_9LxdMhIzpEhHVE-48" style="edgeStyle=orthogonalEdgeStyle;rounded=0;orthogonalLoop=1;jettySize=auto;html=1;entryX=0;entryY=0.5;entryDx=0;entryDy=0;" edge="1" parent="1" source="UvolW_9LxdMhIzpEhHVE-41" target="UvolW_9LxdMhIzpEhHVE-47">
          <mxGeometry relative="1" as="geometry" />
        </mxCell>
        <mxCell id="UvolW_9LxdMhIzpEhHVE-49" value="Não" style="edgeLabel;html=1;align=center;verticalAlign=middle;resizable=0;points=[];" vertex="1" connectable="0" parent="UvolW_9LxdMhIzpEhHVE-48">
          <mxGeometry x="-0.2035" y="1" relative="1" as="geometry">
            <mxPoint as="offset" />
          </mxGeometry>
        </mxCell>
        <mxCell id="UvolW_9LxdMhIzpEhHVE-41" value="" style="rhombus;" vertex="1" parent="1">
          <mxGeometry x="495" y="320" width="90" height="90" as="geometry" />
        </mxCell>
        <mxCell id="UvolW_9LxdMhIzpEhHVE-44" style="edgeStyle=orthogonalEdgeStyle;rounded=0;orthogonalLoop=1;jettySize=auto;html=1;entryX=0.5;entryY=0;entryDx=0;entryDy=0;" edge="1" parent="1" source="UvolW_9LxdMhIzpEhHVE-42" target="UvolW_9LxdMhIzpEhHVE-41">
          <mxGeometry relative="1" as="geometry" />
        </mxCell>
        <mxCell id="UvolW_9LxdMhIzpEhHVE-42" value="Email encontrado na base" style="rounded=1;whiteSpace=wrap;html=1;" vertex="1" parent="1">
          <mxGeometry x="480" y="230" width="120" height="60" as="geometry" />
        </mxCell>
        <mxCell id="UvolW_9LxdMhIzpEhHVE-47" value="Abrir tela cadastrar" style="rounded=1;whiteSpace=wrap;html=1;" vertex="1" parent="1">
          <mxGeometry x="700" y="335" width="120" height="60" as="geometry" />
        </mxCell>
      </root>
    </mxGraphModel>
  </diagram>
  <diagram id="ae9C20XLRE5X7MglkJ_3" name="atividade_fazer_cadastro">
    <mxGraphModel dx="2100" dy="249" grid="1" gridSize="10" guides="1" tooltips="1" connect="1" arrows="1" fold="1" page="1" pageScale="1" pageWidth="1169" pageHeight="827" math="0" shadow="0">
      <root>
        <mxCell id="0" />
        <mxCell id="1" parent="0" />
        <mxCell id="Vy-KUlDS-hz29__ZR1_M-1" value="ativiadade_Fazer_Cadastro" style="shape=umlFrame;whiteSpace=wrap;html=1;pointerEvents=0;width=170;height=40;" vertex="1" parent="1">
          <mxGeometry x="29" y="940" width="1111" height="570" as="geometry" />
        </mxCell>
        <mxCell id="Vy-KUlDS-hz29__ZR1_M-2" value="" style="ellipse;html=1;shape=endState;fillColor=strokeColor;" vertex="1" parent="1">
          <mxGeometry x="365" y="1430" width="30" height="30" as="geometry" />
        </mxCell>
        <mxCell id="Vy-KUlDS-hz29__ZR1_M-3" style="edgeStyle=orthogonalEdgeStyle;rounded=0;orthogonalLoop=1;jettySize=auto;html=1;" edge="1" parent="1" source="Vy-KUlDS-hz29__ZR1_M-4" target="Vy-KUlDS-hz29__ZR1_M-6">
          <mxGeometry relative="1" as="geometry" />
        </mxCell>
        <mxCell id="Vy-KUlDS-hz29__ZR1_M-4" value="" style="ellipse;fillColor=strokeColor;html=1;" vertex="1" parent="1">
          <mxGeometry x="70" y="1025" width="30" height="30" as="geometry" />
        </mxCell>
        <mxCell id="Vy-KUlDS-hz29__ZR1_M-5" style="edgeStyle=orthogonalEdgeStyle;rounded=0;orthogonalLoop=1;jettySize=auto;html=1;entryX=0;entryY=0.5;entryDx=0;entryDy=0;" edge="1" parent="1" source="Vy-KUlDS-hz29__ZR1_M-6" target="Vy-KUlDS-hz29__ZR1_M-9">
          <mxGeometry relative="1" as="geometry" />
        </mxCell>
        <mxCell id="Vy-KUlDS-hz29__ZR1_M-6" value="Informar Tipo" style="rounded=1;whiteSpace=wrap;html=1;" vertex="1" parent="1">
          <mxGeometry x="150" y="1010" width="120" height="60" as="geometry" />
        </mxCell>
        <mxCell id="Vy-KUlDS-hz29__ZR1_M-7" value="Professor**&lt;div&gt;Aluno&lt;/div&gt;&lt;div&gt;Adminsitrador**&lt;/div&gt;" style="shape=note2;boundedLbl=1;whiteSpace=wrap;html=1;size=6;verticalAlign=top;align=center;" vertex="1" parent="1">
          <mxGeometry x="165.76" y="1076" width="88.49" height="65" as="geometry" />
        </mxCell>
        <mxCell id="Vy-KUlDS-hz29__ZR1_M-8" style="edgeStyle=orthogonalEdgeStyle;rounded=0;orthogonalLoop=1;jettySize=auto;html=1;entryX=0;entryY=0.5;entryDx=0;entryDy=0;" edge="1" parent="1" source="Vy-KUlDS-hz29__ZR1_M-9" target="Vy-KUlDS-hz29__ZR1_M-11">
          <mxGeometry relative="1" as="geometry" />
        </mxCell>
        <mxCell id="Vy-KUlDS-hz29__ZR1_M-9" value="Informar nome completo" style="rounded=1;whiteSpace=wrap;html=1;" vertex="1" parent="1">
          <mxGeometry x="320" y="1010" width="120" height="60" as="geometry" />
        </mxCell>
        <mxCell id="Vy-KUlDS-hz29__ZR1_M-10" style="edgeStyle=orthogonalEdgeStyle;rounded=0;orthogonalLoop=1;jettySize=auto;html=1;entryX=0;entryY=0.5;entryDx=0;entryDy=0;" edge="1" parent="1" source="Vy-KUlDS-hz29__ZR1_M-11" target="Vy-KUlDS-hz29__ZR1_M-13">
          <mxGeometry relative="1" as="geometry" />
        </mxCell>
        <mxCell id="Vy-KUlDS-hz29__ZR1_M-11" value="Informar idade" style="rounded=1;whiteSpace=wrap;html=1;" vertex="1" parent="1">
          <mxGeometry x="480" y="1010" width="120" height="60" as="geometry" />
        </mxCell>
        <mxCell id="Vy-KUlDS-hz29__ZR1_M-12" style="edgeStyle=orthogonalEdgeStyle;rounded=0;orthogonalLoop=1;jettySize=auto;html=1;entryX=0;entryY=0.5;entryDx=0;entryDy=0;" edge="1" parent="1" source="Vy-KUlDS-hz29__ZR1_M-13" target="Vy-KUlDS-hz29__ZR1_M-15">
          <mxGeometry relative="1" as="geometry" />
        </mxCell>
        <mxCell id="Vy-KUlDS-hz29__ZR1_M-13" value="Informar email" style="rounded=1;whiteSpace=wrap;html=1;" vertex="1" parent="1">
          <mxGeometry x="640" y="1010" width="120" height="60" as="geometry" />
        </mxCell>
        <mxCell id="Vy-KUlDS-hz29__ZR1_M-14" style="edgeStyle=orthogonalEdgeStyle;rounded=0;orthogonalLoop=1;jettySize=auto;html=1;entryX=0.5;entryY=0;entryDx=0;entryDy=0;" edge="1" parent="1" source="Vy-KUlDS-hz29__ZR1_M-15" target="Vy-KUlDS-hz29__ZR1_M-20">
          <mxGeometry relative="1" as="geometry" />
        </mxCell>
        <mxCell id="Vy-KUlDS-hz29__ZR1_M-15" value="Validar email" style="rounded=1;whiteSpace=wrap;html=1;" vertex="1" parent="1">
          <mxGeometry x="790" y="1010" width="120" height="60" as="geometry" />
        </mxCell>
        <mxCell id="Vy-KUlDS-hz29__ZR1_M-16" style="edgeStyle=orthogonalEdgeStyle;rounded=0;orthogonalLoop=1;jettySize=auto;html=1;entryX=0;entryY=0.5;entryDx=0;entryDy=0;" edge="1" parent="1" source="Vy-KUlDS-hz29__ZR1_M-20" target="Vy-KUlDS-hz29__ZR1_M-22">
          <mxGeometry relative="1" as="geometry" />
        </mxCell>
        <mxCell id="Vy-KUlDS-hz29__ZR1_M-17" value="Não" style="edgeLabel;html=1;align=center;verticalAlign=middle;resizable=0;points=[];" vertex="1" connectable="0" parent="Vy-KUlDS-hz29__ZR1_M-16">
          <mxGeometry x="-0.0725" y="1" relative="1" as="geometry">
            <mxPoint as="offset" />
          </mxGeometry>
        </mxCell>
        <mxCell id="Vy-KUlDS-hz29__ZR1_M-18" style="edgeStyle=orthogonalEdgeStyle;rounded=0;orthogonalLoop=1;jettySize=auto;html=1;" edge="1" parent="1" source="Vy-KUlDS-hz29__ZR1_M-20" target="Vy-KUlDS-hz29__ZR1_M-24">
          <mxGeometry relative="1" as="geometry" />
        </mxCell>
        <mxCell id="Vy-KUlDS-hz29__ZR1_M-19" value="Sim" style="edgeLabel;html=1;align=center;verticalAlign=middle;resizable=0;points=[];" vertex="1" connectable="0" parent="Vy-KUlDS-hz29__ZR1_M-18">
          <mxGeometry x="-0.0663" y="-2" relative="1" as="geometry">
            <mxPoint as="offset" />
          </mxGeometry>
        </mxCell>
        <mxCell id="Vy-KUlDS-hz29__ZR1_M-20" value="" style="rhombus;" vertex="1" parent="1">
          <mxGeometry x="820" y="1142.25" width="59" height="59" as="geometry" />
        </mxCell>
        <mxCell id="Vy-KUlDS-hz29__ZR1_M-21" style="edgeStyle=orthogonalEdgeStyle;rounded=0;orthogonalLoop=1;jettySize=auto;html=1;" edge="1" parent="1" source="Vy-KUlDS-hz29__ZR1_M-22" target="Vy-KUlDS-hz29__ZR1_M-13">
          <mxGeometry relative="1" as="geometry">
            <Array as="points">
              <mxPoint x="1003" y="970" />
              <mxPoint x="700" y="970" />
            </Array>
          </mxGeometry>
        </mxCell>
        <mxCell id="Vy-KUlDS-hz29__ZR1_M-22" value="Mensagem &quot;Digite novamente o Email&quot;" style="rounded=1;whiteSpace=wrap;html=1;" vertex="1" parent="1">
          <mxGeometry x="950" y="1145.75" width="106" height="52" as="geometry" />
        </mxCell>
        <mxCell id="Vy-KUlDS-hz29__ZR1_M-23" style="edgeStyle=orthogonalEdgeStyle;rounded=0;orthogonalLoop=1;jettySize=auto;html=1;entryX=1;entryY=0.5;entryDx=0;entryDy=0;" edge="1" parent="1" source="Vy-KUlDS-hz29__ZR1_M-24" target="Vy-KUlDS-hz29__ZR1_M-26">
          <mxGeometry relative="1" as="geometry" />
        </mxCell>
        <mxCell id="Vy-KUlDS-hz29__ZR1_M-24" value="Informar senha" style="rounded=1;whiteSpace=wrap;html=1;" vertex="1" parent="1">
          <mxGeometry x="640" y="1145.75" width="99" height="49.5" as="geometry" />
        </mxCell>
        <mxCell id="Vy-KUlDS-hz29__ZR1_M-25" style="edgeStyle=orthogonalEdgeStyle;rounded=0;orthogonalLoop=1;jettySize=auto;html=1;" edge="1" parent="1" source="Vy-KUlDS-hz29__ZR1_M-26" target="Vy-KUlDS-hz29__ZR1_M-32">
          <mxGeometry relative="1" as="geometry" />
        </mxCell>
        <mxCell id="Vy-KUlDS-hz29__ZR1_M-26" value="Validar requisitos para senha" style="rounded=1;whiteSpace=wrap;html=1;" vertex="1" parent="1">
          <mxGeometry x="495" y="1145.75" width="99" height="49.5" as="geometry" />
        </mxCell>
        <mxCell id="Vy-KUlDS-hz29__ZR1_M-27" value="Senha numérica:&lt;div&gt;6 digitos&lt;/div&gt;" style="shape=note2;boundedLbl=1;whiteSpace=wrap;html=1;size=13;verticalAlign=top;align=center;" vertex="1" parent="1">
          <mxGeometry x="502.84" y="1201.25" width="83.33" height="68.75" as="geometry" />
        </mxCell>
        <mxCell id="Vy-KUlDS-hz29__ZR1_M-28" style="edgeStyle=orthogonalEdgeStyle;rounded=0;orthogonalLoop=1;jettySize=auto;html=1;entryX=0.5;entryY=0;entryDx=0;entryDy=0;" edge="1" parent="1" source="Vy-KUlDS-hz29__ZR1_M-32" target="Vy-KUlDS-hz29__ZR1_M-24">
          <mxGeometry relative="1" as="geometry">
            <Array as="points">
              <mxPoint x="380" y="1110" />
              <mxPoint x="690" y="1110" />
            </Array>
          </mxGeometry>
        </mxCell>
        <mxCell id="Vy-KUlDS-hz29__ZR1_M-29" value="Não" style="edgeLabel;html=1;align=center;verticalAlign=middle;resizable=0;points=[];" vertex="1" connectable="0" parent="Vy-KUlDS-hz29__ZR1_M-28">
          <mxGeometry x="-0.1759" y="2" relative="1" as="geometry">
            <mxPoint as="offset" />
          </mxGeometry>
        </mxCell>
        <mxCell id="Vy-KUlDS-hz29__ZR1_M-30" style="edgeStyle=orthogonalEdgeStyle;rounded=0;orthogonalLoop=1;jettySize=auto;html=1;" edge="1" parent="1" source="Vy-KUlDS-hz29__ZR1_M-32" target="Vy-KUlDS-hz29__ZR1_M-34">
          <mxGeometry relative="1" as="geometry" />
        </mxCell>
        <mxCell id="Vy-KUlDS-hz29__ZR1_M-31" value="Sim" style="edgeLabel;html=1;align=center;verticalAlign=middle;resizable=0;points=[];" vertex="1" connectable="0" parent="Vy-KUlDS-hz29__ZR1_M-30">
          <mxGeometry x="-0.2511" relative="1" as="geometry">
            <mxPoint as="offset" />
          </mxGeometry>
        </mxCell>
        <mxCell id="Vy-KUlDS-hz29__ZR1_M-32" value="" style="rhombus;" vertex="1" parent="1">
          <mxGeometry x="350.5" y="1141" width="59" height="59" as="geometry" />
        </mxCell>
        <mxCell id="Vy-KUlDS-hz29__ZR1_M-33" style="edgeStyle=orthogonalEdgeStyle;rounded=0;orthogonalLoop=1;jettySize=auto;html=1;" edge="1" parent="1" source="Vy-KUlDS-hz29__ZR1_M-34" target="Vy-KUlDS-hz29__ZR1_M-36">
          <mxGeometry relative="1" as="geometry" />
        </mxCell>
        <mxCell id="Vy-KUlDS-hz29__ZR1_M-34" value="Cadastrar" style="rounded=1;whiteSpace=wrap;html=1;" vertex="1" parent="1">
          <mxGeometry x="330.5" y="1270" width="99" height="49.5" as="geometry" />
        </mxCell>
        <mxCell id="Vy-KUlDS-hz29__ZR1_M-35" style="edgeStyle=orthogonalEdgeStyle;rounded=0;orthogonalLoop=1;jettySize=auto;html=1;entryX=0.5;entryY=0;entryDx=0;entryDy=0;" edge="1" parent="1" source="Vy-KUlDS-hz29__ZR1_M-36" target="Vy-KUlDS-hz29__ZR1_M-2">
          <mxGeometry relative="1" as="geometry" />
        </mxCell>
        <mxCell id="Vy-KUlDS-hz29__ZR1_M-36" value="Salvar no banco de dados" style="rounded=1;whiteSpace=wrap;html=1;" vertex="1" parent="1">
          <mxGeometry x="330.5" y="1350" width="99" height="49.5" as="geometry" />
        </mxCell>
      </root>
    </mxGraphModel>
  </diagram>
  <diagram id="7ab9H8MPgzj9stm-144r" name="Pag-Botão &quot;Jogar Sozinho&quot;">
    <mxGraphModel dx="1393" dy="830" grid="1" gridSize="10" guides="1" tooltips="1" connect="1" arrows="1" fold="1" page="1" pageScale="1" pageWidth="827" pageHeight="1169" math="0" shadow="0">
      <root>
        <mxCell id="0" />
        <mxCell id="1" parent="0" />
        <mxCell id="Leb5xL15oX-Ubc0-iXsL-8" value="" style="edgeStyle=orthogonalEdgeStyle;rounded=0;orthogonalLoop=1;jettySize=auto;html=1;" edge="1" parent="1" source="LKBQl7Y_dQ_j7wkoHbC1-2" target="Leb5xL15oX-Ubc0-iXsL-1">
          <mxGeometry relative="1" as="geometry" />
        </mxCell>
        <mxCell id="LKBQl7Y_dQ_j7wkoHbC1-2" value="" style="ellipse;shape=doubleEllipse;whiteSpace=wrap;html=1;aspect=fixed;" vertex="1" parent="1">
          <mxGeometry x="374" y="10" width="30" height="30" as="geometry" />
        </mxCell>
        <mxCell id="tI0Wp1o2VmHhVhVFiJsZ-11" value="" style="edgeStyle=orthogonalEdgeStyle;rounded=0;orthogonalLoop=1;jettySize=auto;html=1;" edge="1" parent="1" source="Leb5xL15oX-Ubc0-iXsL-1" target="Leb5xL15oX-Ubc0-iXsL-2">
          <mxGeometry relative="1" as="geometry" />
        </mxCell>
        <mxCell id="Leb5xL15oX-Ubc0-iXsL-1" value="Login sucedido" style="rounded=1;whiteSpace=wrap;html=1;" vertex="1" parent="1">
          <mxGeometry x="329" y="80" width="120" height="60" as="geometry" />
        </mxCell>
        <mxCell id="tI0Wp1o2VmHhVhVFiJsZ-12" value="" style="edgeStyle=orthogonalEdgeStyle;rounded=0;orthogonalLoop=1;jettySize=auto;html=1;" edge="1" parent="1" source="Leb5xL15oX-Ubc0-iXsL-2" target="Leb5xL15oX-Ubc0-iXsL-3">
          <mxGeometry relative="1" as="geometry" />
        </mxCell>
        <mxCell id="Leb5xL15oX-Ubc0-iXsL-2" value="Escolha a matéria" style="rounded=1;whiteSpace=wrap;html=1;" vertex="1" parent="1">
          <mxGeometry x="329" y="190" width="120" height="60" as="geometry" />
        </mxCell>
        <mxCell id="tI0Wp1o2VmHhVhVFiJsZ-13" value="" style="edgeStyle=orthogonalEdgeStyle;rounded=0;orthogonalLoop=1;jettySize=auto;html=1;" edge="1" parent="1" source="Leb5xL15oX-Ubc0-iXsL-3" target="fhk4xJ4812ODRopXfqm8-2">
          <mxGeometry relative="1" as="geometry" />
        </mxCell>
        <mxCell id="Leb5xL15oX-Ubc0-iXsL-3" value="Escolha o Tema" style="rounded=1;whiteSpace=wrap;html=1;" vertex="1" parent="1">
          <mxGeometry x="329" y="300" width="120" height="60" as="geometry" />
        </mxCell>
        <mxCell id="tI0Wp1o2VmHhVhVFiJsZ-10" style="edgeStyle=orthogonalEdgeStyle;rounded=0;orthogonalLoop=1;jettySize=auto;html=1;" edge="1" parent="1" source="Leb5xL15oX-Ubc0-iXsL-6" target="tI0Wp1o2VmHhVhVFiJsZ-2">
          <mxGeometry relative="1" as="geometry">
            <Array as="points">
              <mxPoint x="755" y="915" />
            </Array>
          </mxGeometry>
        </mxCell>
        <mxCell id="Leb5xL15oX-Ubc0-iXsL-6" value="Jogar Solo" style="rounded=1;whiteSpace=wrap;html=1;" vertex="1" parent="1">
          <mxGeometry x="695" y="700" width="120" height="60" as="geometry" />
        </mxCell>
        <mxCell id="tI0Wp1o2VmHhVhVFiJsZ-9" style="edgeStyle=orthogonalEdgeStyle;rounded=0;orthogonalLoop=1;jettySize=auto;html=1;" edge="1" parent="1" source="Leb5xL15oX-Ubc0-iXsL-7" target="tI0Wp1o2VmHhVhVFiJsZ-2">
          <mxGeometry relative="1" as="geometry">
            <Array as="points">
              <mxPoint x="500" y="730" />
              <mxPoint x="500" y="915" />
            </Array>
          </mxGeometry>
        </mxCell>
        <mxCell id="Leb5xL15oX-Ubc0-iXsL-7" value="Jogar Multiplayer" style="rounded=1;whiteSpace=wrap;html=1;" vertex="1" parent="1">
          <mxGeometry x="345" y="700" width="120" height="60" as="geometry" />
        </mxCell>
        <mxCell id="jkhGfX3YgiH2d45ky08n-2" style="edgeStyle=orthogonalEdgeStyle;rounded=0;orthogonalLoop=1;jettySize=auto;html=1;" edge="1" parent="1" source="jkhGfX3YgiH2d45ky08n-1" target="Leb5xL15oX-Ubc0-iXsL-6">
          <mxGeometry relative="1" as="geometry" />
        </mxCell>
        <mxCell id="jkhGfX3YgiH2d45ky08n-3" style="edgeStyle=orthogonalEdgeStyle;rounded=0;orthogonalLoop=1;jettySize=auto;html=1;" edge="1" parent="1" source="jkhGfX3YgiH2d45ky08n-1" target="Leb5xL15oX-Ubc0-iXsL-7">
          <mxGeometry relative="1" as="geometry" />
        </mxCell>
        <mxCell id="jkhGfX3YgiH2d45ky08n-1" value="Deseja interagir com&lt;div&gt;outros usuários&lt;/div&gt;" style="shape=hexagon;perimeter=hexagonPerimeter2;whiteSpace=wrap;html=1;fixedSize=1;" vertex="1" parent="1">
          <mxGeometry x="500" y="620" width="160" height="40" as="geometry" />
        </mxCell>
        <mxCell id="owOrs4mL0EpI6krylZv_-1" value="&lt;b&gt;SIM&lt;span style=&quot;color: rgba(0, 0, 0, 0); font-family: monospace; font-size: 0px; text-align: start; text-wrap: nowrap;&quot;&gt;%3CmxGraphModel%3E%3Croot%3E%3CmxCell%20id%3D%220%22%2F%3E%3CmxCell%20id%3D%221%22%20parent%3D%220%22%2F%3E%3CmxCell%20id%3D%222%22%20value%3D%22%22%20style%3D%22rounded%3D1%3BwhiteSpace%3Dwrap%3Bhtml%3D1%3B%22%20vertex%3D%221%22%20parent%3D%221%22%3E%3CmxGeometry%20x%3D%22230%22%20y%3D%22525%22%20width%3D%22120%22%20height%3D%2260%22%20as%3D%22geometry%22%2F%3E%3C%2FmxCell%3E%3C%2Froot%3E%3C%2FmxGraphModel%3E&lt;/span&gt;&lt;/b&gt;" style="text;html=1;align=center;verticalAlign=middle;whiteSpace=wrap;rounded=0;" vertex="1" parent="1">
          <mxGeometry x="385" y="610" width="60" height="30" as="geometry" />
        </mxCell>
        <mxCell id="qFfAptIqZ31uqkkkFCYQ-1" value="&lt;b&gt;NÃO&lt;/b&gt;" style="text;html=1;align=center;verticalAlign=middle;whiteSpace=wrap;rounded=0;" vertex="1" parent="1">
          <mxGeometry x="705" y="610" width="60" height="30" as="geometry" />
        </mxCell>
        <mxCell id="fZ1noxS4n7H4NYQWuTZb-3" style="edgeStyle=orthogonalEdgeStyle;rounded=0;orthogonalLoop=1;jettySize=auto;html=1;" edge="1" parent="1" source="fhk4xJ4812ODRopXfqm8-2" target="fhk4xJ4812ODRopXfqm8-5">
          <mxGeometry relative="1" as="geometry" />
        </mxCell>
        <mxCell id="fZ1noxS4n7H4NYQWuTZb-4" style="edgeStyle=orthogonalEdgeStyle;rounded=0;orthogonalLoop=1;jettySize=auto;html=1;" edge="1" parent="1" source="fhk4xJ4812ODRopXfqm8-2" target="fZ1noxS4n7H4NYQWuTZb-1">
          <mxGeometry relative="1" as="geometry" />
        </mxCell>
        <mxCell id="fhk4xJ4812ODRopXfqm8-2" value="Deseja escolher a sessão" style="shape=hexagon;perimeter=hexagonPerimeter2;whiteSpace=wrap;html=1;fixedSize=1;" vertex="1" parent="1">
          <mxGeometry x="309" y="420" width="160" height="40" as="geometry" />
        </mxCell>
        <mxCell id="fZ1noxS4n7H4NYQWuTZb-7" value="" style="edgeStyle=orthogonalEdgeStyle;rounded=0;orthogonalLoop=1;jettySize=auto;html=1;" edge="1" parent="1" source="fhk4xJ4812ODRopXfqm8-5" target="fZ1noxS4n7H4NYQWuTZb-6">
          <mxGeometry relative="1" as="geometry" />
        </mxCell>
        <mxCell id="fhk4xJ4812ODRopXfqm8-5" value="Informar a Sessão" style="rounded=1;whiteSpace=wrap;html=1;" vertex="1" parent="1">
          <mxGeometry x="150" y="480" width="120" height="60" as="geometry" />
        </mxCell>
        <mxCell id="tI0Wp1o2VmHhVhVFiJsZ-6" style="edgeStyle=orthogonalEdgeStyle;rounded=0;orthogonalLoop=1;jettySize=auto;html=1;" edge="1" parent="1" source="fZ1noxS4n7H4NYQWuTZb-1" target="jkhGfX3YgiH2d45ky08n-1">
          <mxGeometry relative="1" as="geometry" />
        </mxCell>
        <mxCell id="fZ1noxS4n7H4NYQWuTZb-1" value="&amp;nbsp;Gerar Sessão aleatoria" style="rounded=1;whiteSpace=wrap;html=1;" vertex="1" parent="1">
          <mxGeometry x="520" y="480" width="120" height="60" as="geometry" />
        </mxCell>
        <mxCell id="fZ1noxS4n7H4NYQWuTZb-2" value="&lt;b&gt;SIM&lt;span style=&quot;color: rgba(0, 0, 0, 0); font-family: monospace; font-size: 0px; text-align: start; text-wrap: nowrap;&quot;&gt;%3CmxGraphModel%3E%3Croot%3E%3CmxCell%20id%3D%220%22%2F%3E%3CmxCell%20id%3D%221%22%20parent%3D%220%22%2F%3E%3CmxCell%20id%3D%222%22%20value%3D%22%22%20style%3D%22rounded%3D1%3BwhiteSpace%3Dwrap%3Bhtml%3D1%3B%22%20vertex%3D%221%22%20parent%3D%221%22%3E%3CmxGeometry%20x%3D%22230%22%20y%3D%22525%22%20width%3D%22120%22%20height%3D%2260%22%20as%3D%22geometry%22%2F%3E%3C%2FmxCell%3E%3C%2Froot%3E%3C%2FmxGraphModel%3E&lt;/span&gt;&lt;/b&gt;" style="text;html=1;align=center;verticalAlign=middle;whiteSpace=wrap;rounded=0;" vertex="1" parent="1">
          <mxGeometry x="190" y="410" width="60" height="30" as="geometry" />
        </mxCell>
        <mxCell id="fZ1noxS4n7H4NYQWuTZb-5" value="&lt;b&gt;NÃO&lt;/b&gt;" style="text;html=1;align=center;verticalAlign=middle;whiteSpace=wrap;rounded=0;" vertex="1" parent="1">
          <mxGeometry x="530" y="410" width="60" height="30" as="geometry" />
        </mxCell>
        <mxCell id="fZ1noxS4n7H4NYQWuTZb-12" style="edgeStyle=orthogonalEdgeStyle;rounded=0;orthogonalLoop=1;jettySize=auto;html=1;entryX=1;entryY=0.5;entryDx=0;entryDy=0;" edge="1" parent="1" source="fZ1noxS4n7H4NYQWuTZb-6" target="fhk4xJ4812ODRopXfqm8-5">
          <mxGeometry relative="1" as="geometry">
            <Array as="points">
              <mxPoint x="320" y="620" />
              <mxPoint x="320" y="510" />
            </Array>
          </mxGeometry>
        </mxCell>
        <mxCell id="tI0Wp1o2VmHhVhVFiJsZ-7" style="edgeStyle=orthogonalEdgeStyle;rounded=0;orthogonalLoop=1;jettySize=auto;html=1;" edge="1" parent="1" source="fZ1noxS4n7H4NYQWuTZb-6" target="tI0Wp1o2VmHhVhVFiJsZ-2">
          <mxGeometry relative="1" as="geometry">
            <Array as="points">
              <mxPoint x="210" y="915" />
            </Array>
          </mxGeometry>
        </mxCell>
        <mxCell id="fZ1noxS4n7H4NYQWuTZb-6" value="Sessão válida" style="shape=hexagon;perimeter=hexagonPerimeter2;whiteSpace=wrap;html=1;fixedSize=1;" vertex="1" parent="1">
          <mxGeometry x="130" y="600" width="160" height="40" as="geometry" />
        </mxCell>
        <mxCell id="fZ1noxS4n7H4NYQWuTZb-11" value="&lt;b&gt;SIM&lt;span style=&quot;color: rgba(0, 0, 0, 0); font-family: monospace; font-size: 0px; text-align: start; text-wrap: nowrap;&quot;&gt;%3CmxGraphModel%3E%3Croot%3E%3CmxCell%20id%3D%220%22%2F%3E%3CmxCell%20id%3D%221%22%20parent%3D%220%22%2F%3E%3CmxCell%20id%3D%222%22%20value%3D%22%22%20style%3D%22rounded%3D1%3BwhiteSpace%3Dwrap%3Bhtml%3D1%3B%22%20vertex%3D%221%22%20parent%3D%221%22%3E%3CmxGeometry%20x%3D%22230%22%20y%3D%22525%22%20width%3D%22120%22%20height%3D%2260%22%20as%3D%22geometry%22%2F%3E%3C%2FmxCell%3E%3C%2Froot%3E%3C%2FmxGraphModel%3E&lt;/span&gt;&lt;/b&gt;" style="text;html=1;align=center;verticalAlign=middle;whiteSpace=wrap;rounded=0;" vertex="1" parent="1">
          <mxGeometry x="140" y="650" width="60" height="30" as="geometry" />
        </mxCell>
        <mxCell id="fZ1noxS4n7H4NYQWuTZb-13" value="&lt;b&gt;NÃO&lt;/b&gt;" style="text;html=1;align=center;verticalAlign=middle;whiteSpace=wrap;rounded=0;" vertex="1" parent="1">
          <mxGeometry x="314" y="590" width="60" height="30" as="geometry" />
        </mxCell>
        <mxCell id="fZ1noxS4n7H4NYQWuTZb-14" value="" style="ellipse;html=1;shape=endState;fillColor=strokeColor;" vertex="1" parent="1">
          <mxGeometry x="374" y="1000" width="30" height="30" as="geometry" />
        </mxCell>
        <mxCell id="tI0Wp1o2VmHhVhVFiJsZ-5" value="" style="edgeStyle=orthogonalEdgeStyle;rounded=0;orthogonalLoop=1;jettySize=auto;html=1;" edge="1" parent="1" source="tI0Wp1o2VmHhVhVFiJsZ-2" target="fZ1noxS4n7H4NYQWuTZb-14">
          <mxGeometry relative="1" as="geometry" />
        </mxCell>
        <mxCell id="tI0Wp1o2VmHhVhVFiJsZ-2" value="Entrar no Jogo" style="strokeWidth=2;html=1;shape=mxgraph.flowchart.decision;whiteSpace=wrap;" vertex="1" parent="1">
          <mxGeometry x="341.5" y="870" width="95" height="90" as="geometry" />
        </mxCell>
      </root>
    </mxGraphModel>
  </diagram>
</mxfile>
